<svg width="105" height="57" xmlns="http://www.w3.org/2000/svg" xmlns:xlink="http://www.w3.org/1999/xlink" overflow="hidden"><g transform="translate(-59 -175)"><path d="M162.684 220.081 142.798 181.734C141.081 178.326 137.566 176 133.491 176L133.482 176C129.408 176 125.893 178.326 124.176 181.734L110.172 208.73C108.609 205.952 106.115 203.77 103.106 202.598 106.467 200.173 108.654 196.224 108.654 191.77 108.654 186.603 105.718 182.131 101.417 179.922 97.6311 177.929 93.3124 176.811 88.7316 176.811L67.7882 176.811C63.4785 176.811 60 180.283 60 184.575L60 223.462C60 227.745 63.4785 231.225 67.7882 231.225L90.4302 231.225C94.7941 231.225 98.9503 230.324 102.718 228.71L104.155 228.016C104.236 227.98 104.317 227.934 104.389 227.898 105.745 230.152 108.211 231.667 111.048 231.667 114.201 231.667 116.912 229.801 118.132 227.105 118.746 225.68 120.12 224.68 121.746 224.598L145.21 224.598C146.836 224.68 148.21 225.68 148.824 227.105 150.044 229.801 152.763 231.667 155.908 231.667 160.208 231.667 163.687 228.187 163.687 223.913 163.687 222.525 163.325 221.217 162.684 220.09" fill="#FFFFFF" fill-rule="evenodd"/></g></svg>